<?xml version="1.0" encoding="UTF-8" standalone="no"?>
<svg width="66px" height="38px" viewBox="0 0 66 38" version="1.1" xmlns="http://www.w3.org/2000/svg" xmlns:xlink="http://www.w3.org/1999/xlink" xmlns:sketch="http://www.bohemiancoding.com/sketch/ns">
    <!-- Generator: Sketch 3.4.3 (16618) - http://www.bohemiancoding.com/sketch -->
    <title>Shape@2x</title>
    <desc>Created with Sketch.</desc>
    <defs></defs>
    <g id="Welcome" stroke="none" stroke-width="1" fill="none" fill-rule="evenodd" sketch:type="MSPage">
        <g id="V1_2-Copy" sketch:type="MSArtboardGroup" transform="translate(-822.000000, -1736.000000)" fill="#FFFFFF">
            <g id="Industries" sketch:type="MSLayerGroup" transform="translate(252.000000, 1595.000000)">
                <g id="Automotive" transform="translate(570.000000, 141.000000)" sketch:type="MSShapeGroup">
                    <g id="truck77" transform="translate(0.000000, 0.253012)">
                        <g id="Group">
                            <path d="M65.2394161,15.5531739 L60.7618978,8.51516665 C59.2262774,6.13819541 57.7772263,4.75015038 54.8769343,4.51544631 C54.7818978,4.4922874 54.6818978,4.47982763 54.5788321,4.47982763 L45.620438,4.47982763 L45.620438,2.27905373 C45.620438,1.08427051 44.5725547,0.112137895 43.2846715,0.112137895 L2.33576642,0.112137895 C1.04788321,0.112137895 0,1.08427051 0,2.27905373 L0,29.4089755 C0,30.6038941 1.04788321,31.5758913 2.33576642,31.5758913 L4.77240876,31.5758913 C5.33051095,34.6480362 8.21649635,36.9962958 11.6842336,36.9962958 C15.1512409,36.9962958 18.0366423,34.6480362 18.5945985,31.5758913 L46.870219,31.5758913 C47.4283212,34.6480362 50.3143066,36.9962958 53.7820438,36.9962958 C57.2490511,36.9962958 60.1344526,34.6480362 60.6924088,31.5758913 L64.2335766,31.5758913 C64.8785401,31.5758913 65.4014599,31.090773 65.4014599,30.4924334 L65.4014599,16.1038414 C65.4014599,15.9101732 65.3454015,15.719891 65.2394161,15.5531739 L65.2394161,15.5531739 Z M61.959562,18.6212558 L63.0656934,18.6212558 L63.0656934,20.7541782 L60.7916788,20.7541782 L60.7916788,19.7047137 C60.7916788,19.7047137 61.3156204,18.6212558 61.959562,18.6212558 Z M62.3652555,15.2988321 L51.6366423,15.2988321 C51.559708,15.28407 51.48,15.2762149 51.3982482,15.2762149 C50.7413139,15.2762149 50.2068613,14.7803975 50.2068613,14.170817 L50.2068613,9.82940111 L58.8856934,9.82940111 L62.3652555,15.2988321 L62.3652555,15.2988321 Z M43.2846715,2.27905373 L43.2846715,29.4089755 L18.5947445,29.4089755 C18.0370803,26.3368305 15.1513869,23.9885709 11.6842336,23.9885709 C8.21620438,23.9885709 5.33007299,26.336966 4.77226277,29.4089755 L2.33576642,29.4089755 L2.33576642,2.27905373 L43.2846715,2.27905373 Z M11.6842336,34.82938 C9.10627737,34.82938 7.00905109,32.883625 7.00905109,30.4920271 C7.00905109,28.1008355 9.10627737,26.1553513 11.6842336,26.1553513 C14.2613139,26.1553513 16.3581022,28.1008355 16.3581022,30.4920271 C16.3581022,32.883625 14.2613139,34.82938 11.6842336,34.82938 L11.6842336,34.82938 Z M53.7820438,34.82938 C51.2040876,34.82938 49.1068613,32.883625 49.1068613,30.4920271 C49.1068613,28.1008355 51.2040876,26.1553513 53.7820438,26.1553513 C56.3591241,26.1553513 58.4559124,28.1008355 58.4559124,30.4920271 C58.4559124,32.883625 56.3592701,34.82938 53.7820438,34.82938 L53.7820438,34.82938 Z M60.6925547,29.4089755 C60.1348905,26.3368305 57.2491971,23.9885709 53.7820438,23.9885709 C50.3140146,23.9885709 47.4278832,26.336966 46.870073,29.4089755 L45.620438,29.4089755 L45.620438,6.64674347 L53.9524088,6.64674347 C55.4429197,6.64674347 56.3737226,6.93819365 57.1948905,7.66248527 L49.0389781,7.66248527 C48.3940146,7.66248527 47.8710949,8.14760355 47.8710949,8.74594319 L47.8710949,14.170817 C47.8710949,15.8848474 49.2988321,17.2953742 51.1090511,17.4321608 C51.2016058,17.4541008 51.2985401,17.4656125 51.3982482,17.4656125 L59.4232117,17.4656125 C58.8245255,18.0490546 58.4559124,18.8374057 58.4559124,19.7045783 L58.4559124,21.8375007 C58.4559124,22.4358403 58.9788321,22.9209586 59.6237956,22.9209586 L63.0656934,22.9209586 L63.0656934,29.40884 L60.6925547,29.40884 L60.6925547,29.4089755 Z" id="Shape"></path>
                        </g>
                    </g>
                </g>
            </g>
        </g>
    </g>
</svg>