<?xml version="1.0" encoding="UTF-8" standalone="no"?>
<svg width="17px" height="16px" viewBox="0 0 17 16" version="1.1" xmlns="http://www.w3.org/2000/svg" xmlns:xlink="http://www.w3.org/1999/xlink" xmlns:sketch="http://www.bohemiancoding.com/sketch/ns">
    <!-- Generator: Sketch 3.4.3 (16618) - http://www.bohemiancoding.com/sketch -->
    <title>hamburger</title>
    <desc>Created with Sketch.</desc>
    <defs></defs>
    <g id="Welcome" stroke="none" stroke-width="1" fill="none" fill-rule="evenodd" sketch:type="MSPage">
        <g id="iPhone-5/5S/5C" sketch:type="MSArtboardGroup" transform="translate(-278.000000, -18.000000)" fill="#FFFFFF">
            <g id="hamburger" sketch:type="MSLayerGroup" transform="translate(278.000000, 17.000000)">
                <path d="M-1.10075567,9.75862069 L18.0831411,9.75862069 C18.5777254,9.75862069 18.9823854,9.36293103 18.9823854,8.87931034 C18.9823854,8.39568966 18.5777254,8 18.0831411,8 L-1.10075567,8 C-1.59534005,8 -2,8.39568966 -2,8.87931034 C-2,9.36293103 -1.59534005,9.75862069 -1.10075567,9.75862069 L-1.10075567,9.75862069 Z" id="Shape" sketch:type="MSShapeGroup" transform="translate(8.491193, 8.879310) rotate(-315.000000) translate(-8.491193, -8.879310) "></path>
                <path d="M-1.10075567,9.75862069 L18.0831411,9.75862069 C18.5777254,9.75862069 18.9823854,9.36293103 18.9823854,8.87931034 C18.9823854,8.39568966 18.5777254,8 18.0831411,8 L-1.10075567,8 C-1.59534005,8 -2,8.39568966 -2,8.87931034 C-2,9.36293103 -1.59534005,9.75862069 -1.10075567,9.75862069 L-1.10075567,9.75862069 Z" id="Shape" sketch:type="MSShapeGroup" transform="translate(8.491193, 8.879310) rotate(-45.000000) translate(-8.491193, -8.879310) "></path>
            </g>
        </g>
    </g>
</svg>