<?xml version="1.0" encoding="UTF-8" standalone="no"?>
<svg width="50px" height="48px" viewBox="0 0 50 48" version="1.1" xmlns="http://www.w3.org/2000/svg" xmlns:xlink="http://www.w3.org/1999/xlink" xmlns:sketch="http://www.bohemiancoding.com/sketch/ns">
    <!-- Generator: Sketch 3.4.3 (16618) - http://www.bohemiancoding.com/sketch -->
    <title>Shape@2x</title>
    <desc>Created with Sketch.</desc>
    <defs></defs>
    <g id="Welcome" stroke="none" stroke-width="1" fill="none" fill-rule="evenodd" sketch:type="MSPage">
        <g id="V1_2-Copy" sketch:type="MSArtboardGroup" transform="translate(-252.000000, -1726.000000)" fill="#FFFFFF">
            <g id="Industries" sketch:type="MSLayerGroup" transform="translate(252.000000, 1595.000000)">
                <g id="Communication" transform="translate(0.000000, 131.000000)" sketch:type="MSShapeGroup">
                    <g id="message20" transform="translate(0.000000, 0.048193)">
                        <g id="Shape_9">
                            <path d="M24.9961664,0 C11.2339315,0 0.036949429,10.3258152 0.036949429,23.0169146 C0.036949429,29.4632943 2.97977162,35.6182698 8.12781403,39.9754083 L8.12781403,46.3214499 C8.12781403,46.6649905 8.32544861,46.982425 8.64787928,47.1552546 C8.81019576,47.2430315 8.99216966,47.2864659 9.17422512,47.2864659 C9.35212072,47.2864659 9.53001631,47.2439395 9.69021207,47.1610055 L15.3032626,44.2272902 C18.380261,45.4268824 21.6393148,46.0338293 24.9960848,46.0338293 C38.7592985,46.0338293 49.9553018,35.7080141 49.9553018,23.0159309 C49.9553834,10.3258152 38.7593801,0 24.9961664,0 L24.9961664,0 Z M24.9961664,44.104781 C21.7569331,44.104781 18.6185155,43.4871646 15.6684339,42.2702441 C15.3657423,42.1456917 15.0141925,42.1602203 14.7249592,42.3117111 L10.219739,44.6664017 L10.219739,39.5469663 C10.219739,39.2700151 10.090783,39.0064575 9.86606852,38.8240934 C4.94893964,34.8182895 2.12781403,29.0570235 2.12781403,23.0178983 C2.12985318,11.3892775 12.387602,1.93003204 24.9961664,1.93003204 C37.6047308,1.93003204 47.8624796,11.3892775 47.8624796,23.0169146 C47.8624796,34.6446274 37.6047308,44.104781 24.9961664,44.104781 L24.9961664,44.104781 Z M15.9472268,20.2019252 C13.8792007,20.2019252 12.1972268,21.7527762 12.1972268,23.6596533 C12.1972268,25.5665304 13.8792822,27.1173058 15.9472268,27.1173058 C18.0151713,27.1173058 19.6972268,25.5665304 19.6972268,23.6596533 C19.6972268,21.7527762 18.0152529,20.2019252 15.9472268,20.2019252 L15.9472268,20.2019252 Z M15.9472268,25.1882574 C15.0339315,25.1882574 14.2901305,24.5030681 14.2901305,23.660637 C14.2901305,22.8182059 15.0339315,22.1330166 15.9472268,22.1330166 C16.860522,22.1330166 17.604323,22.8182059 17.604323,23.660637 C17.604323,24.5030681 16.8615824,25.1882574 15.9472268,25.1882574 L15.9472268,25.1882574 Z M25.3644372,20.2019252 C23.2964111,20.2019252 21.6144372,21.7527762 21.6144372,23.6596533 C21.6144372,25.5665304 23.2964927,27.1173058 25.3644372,27.1173058 C27.4323817,27.1173058 29.1145188,25.5665304 29.1145188,23.6596533 C29.1145188,21.7527762 27.4323817,20.2019252 25.3644372,20.2019252 L25.3644372,20.2019252 Z M25.3644372,25.1882574 C24.4511419,25.1882574 23.7073409,24.5030681 23.7073409,23.660637 C23.7073409,22.8182059 24.4511419,22.1330166 25.3644372,22.1330166 C26.2777325,22.1330166 27.0214519,22.8182059 27.0214519,23.660637 C27.0214519,24.5030681 26.2787928,25.1882574 25.3644372,25.1882574 L25.3644372,25.1882574 Z M34.7815661,20.2019252 C32.7146819,20.2019252 31.0326264,21.7527762 31.0326264,23.6596533 C31.0326264,25.5665304 32.7146819,27.1173058 34.7815661,27.1173058 C36.8495922,27.1173058 38.5316476,25.5665304 38.5316476,23.6596533 C38.5316476,21.7527762 36.8495106,20.2019252 34.7815661,20.2019252 L34.7815661,20.2019252 Z M34.7815661,25.1882574 C33.8682708,25.1882574 33.1255302,24.5030681 33.1255302,23.660637 C33.1255302,22.8182059 33.8681892,22.1330166 34.7815661,22.1330166 C35.6949429,22.1330166 36.4386623,22.8182059 36.4386623,23.660637 C36.4386623,24.5030681 35.6949429,25.1882574 34.7815661,25.1882574 L34.7815661,25.1882574 Z" id="Shape"></path>
                        </g>
                    </g>
                </g>
            </g>
        </g>
    </g>
</svg>