<?xml version="1.0" encoding="UTF-8" standalone="no"?>
<svg width="141px" height="141px" viewBox="0 0 141 141" version="1.1" xmlns="http://www.w3.org/2000/svg" xmlns:xlink="http://www.w3.org/1999/xlink" xmlns:sketch="http://www.bohemiancoding.com/sketch/ns">
    <!-- Generator: Sketch 3.4.3 (16618) - http://www.bohemiancoding.com/sketch -->
    <title>Custom icon@2x</title>
    <desc>Created with Sketch.</desc>
    <defs>
        <linearGradient x1="50%" y1="100%" x2="50%" y2="0%" id="linearGradient-1">
            <stop stop-color="#5A98E1" offset="0%"></stop>
            <stop stop-color="#4A90E2" offset="100%"></stop>
        </linearGradient>
        <radialGradient cx="47.1359611%" cy="112.477249%" fx="47.1359611%" fy="112.477249%" r="100%" id="radialGradient-2">
            <stop stop-color="#BCBCBC" stop-opacity="0.65" offset="0%"></stop>
            <stop stop-color="#B6B6B6" stop-opacity="0.57937887" offset="44.9918343%"></stop>
            <stop stop-color="#000000" stop-opacity="0.5" offset="100%"></stop>
        </radialGradient>
        <filter x="-50%" y="-50%" width="200%" height="200%" filterUnits="objectBoundingBox" id="filter-3">
            <feMorphology radius="1" in="SourceAlpha" operator="dilate" result="shadowSpreadOuter1"></feMorphology>
            <feOffset dx="0" dy="2" in="shadowSpreadOuter1" result="shadowOffsetOuter1"></feOffset>
            <feGaussianBlur stdDeviation="0" in="shadowOffsetOuter1" result="shadowBlurOuter1"></feGaussianBlur>
            <feColorMatrix values="0 0 0 0 0.151348739   0 0 0 0 0.259275774   0 0 0 0 0.375504889  0 0 0 0.7 0" in="shadowBlurOuter1" type="matrix" result="shadowMatrixOuter1"></feColorMatrix>
            <feMerge>
                <feMergeNode in="shadowMatrixOuter1"></feMergeNode>
                <feMergeNode in="SourceGraphic"></feMergeNode>
            </feMerge>
        </filter>
        <rect id="path-4" x="-5.1159077e-13" y="2.49933407e-12" width="129.121622" height="129.121622" rx="12"></rect>
    </defs>
    <g id="Welcome" stroke="none" stroke-width="1" fill="none" fill-rule="evenodd" sketch:type="MSPage">
        <g id="V1_2-Copy" sketch:type="MSArtboardGroup" transform="translate(-410.000000, -2856.000000)">
            <g id="Our-services" sketch:type="MSLayerGroup" transform="translate(0.000000, 2621.000000)">
                <g id="Implementation" transform="translate(252.000000, 234.000000)">
                    <g id="Custom-icon" transform="translate(229.000000, 71.000000) rotate(5.000000) translate(-229.000000, -71.000000) translate(164.000000, 6.000000)">
                        <g id="Rectangle-34" filter="url(#filter-3)">
                            <use fill="url(#linearGradient-1)" sketch:type="MSShapeGroup" xlink:href="#path-4"></use>
                            <use fill-opacity="0.300000012" fill="url(#radialGradient-2)" xlink:href="#path-4"></use>
                        </g>
                        <g id="Group" transform="translate(63.466526, 65.238948) rotate(-5.000000) translate(-63.466526, -65.238948) translate(29.966526, 29.238948)" stroke="#FFFFFF" stroke-width="0.5" fill="#FFFFFF" sketch:type="MSShapeGroup">
                            <path d="M54.8706897,8.20172414 L55.2172414,8.20172414 L51.0586207,12.3603448 L53.137931,20.1 L60.8775862,22.1793103 L65.0362069,18.0206897 C65.1517241,20.9086207 64.112069,23.5655172 62.0327586,25.6448276 C60.0689655,27.6086207 57.5275862,28.6482759 54.7551724,28.6482759 C53.6,28.6482759 52.5603448,28.4172414 51.4051724,28.0706897 L50.8275862,27.9551724 L42.3948276,36.387931 L36.7344828,30.9586207 L45.2827586,22.4103448 L45.0517241,21.7172414 C43.7810345,18.0206897 44.7051724,13.9775862 47.4775862,11.2051724 C49.5568966,9.24137931 52.0982759,8.20172414 54.8706897,8.20172414 L54.8706897,8.20172414 Z M54.8706897,7.04655172 C51.9827586,7.04655172 48.9793103,8.20172414 46.7844828,10.3965517 C43.6655172,13.6310345 42.7413793,18.1362069 44.012069,22.1793103 L35.1172414,31.0741379 L42.5103448,38.0051724 L51.1741379,29.3413793 C52.3293103,29.687931 53.6,29.9189655 54.8706897,29.9189655 C57.7586207,29.9189655 60.762069,28.7637931 62.9568966,26.5689655 C65.9603448,23.5655172 66.8844828,19.4068966 65.9603448,15.7103448 L60.6465517,21.0241379 L54.1775862,19.2913793 L52.3293103,12.7068966 L57.6431034,7.39310345 C56.7189655,7.16206897 55.7948276,7.04655172 54.8706897,7.04655172 L54.8706897,7.04655172 L54.8706897,7.04655172 Z" id="Shape"></path>
                            <path d="M17.6741379,2.31034483 L27.8396552,12.3603448 L20.1,20.2155172 L61.3396552,59.2603448 C62.2637931,60.3 62.8413793,61.5706897 62.8413793,62.9568966 C62.8413793,63.5344828 62.7258621,64.2275862 62.4948276,64.8051724 C61.9172414,66.1913793 60.762069,67.3465517 59.3758621,67.9241379 C58.6827586,68.1551724 57.9896552,68.3862069 57.1810345,68.3862069 C55.6793103,68.3862069 54.2931034,67.8086207 53.2534483,66.8844828 L14.6706897,25.5293103 L4.62068966,35.2327586 L1.15517241,32.1137931 L1.15517241,18.3672414 L17.6741379,2.31034483 L17.6741379,2.31034483 Z M17.6741379,0.693103448 L-2.77111667e-13,17.9051724 L-2.77111667e-13,32.5758621 L4.62068966,36.85 L14.4396552,27.1465517 L52.2137931,67.462069 C53.4844828,68.6172414 55.2172414,69.3103448 57.0655172,69.3103448 C57.9896552,69.3103448 58.9137931,69.0793103 59.7224138,68.8482759 C61.4551724,68.1551724 62.8413793,66.7689655 63.5344828,65.0362069 C63.7655172,64.3431034 63.9965517,63.5344828 63.9965517,62.7258621 C63.9965517,60.9931034 63.3034483,59.3758621 62.1482759,58.2206897 L21.8327586,20.1 L29.4568966,12.2448276 L17.6741379,0.693103448 L17.6741379,0.693103448 Z" id="Shape"></path>
                            <path d="M25.2982759,42.5103448 L30.612069,48.1706897 L23.6810345,55.1017241 L23.2189655,55.5637931 L23.45,56.2568966 C24.7206897,59.9534483 23.7965517,63.9965517 21.0241379,66.7689655 C19.0603448,68.7327586 16.5189655,69.7724138 13.7465517,69.7724138 C10.9741379,69.7724138 8.43275862,68.7327586 6.46896552,66.7689655 C2.42586207,62.7258621 2.42586207,56.2568966 6.46896552,52.2137931 C8.43275862,50.25 10.9741379,49.2103448 13.7465517,49.2103448 C14.9017241,49.2103448 15.9413793,49.4413793 17.0965517,49.787931 L17.7896552,50.0189655 L18.2517241,49.5568966 L25.2982759,42.5103448 L25.2982759,42.5103448 Z M15.8258621,67.3465517 L16.287931,66.8844828 L21.1396552,62.0327586 L21.6017241,61.5706897 L21.4862069,60.9931034 L19.8689655,54.6396552 L19.637931,53.9465517 L18.9448276,53.8310345 L12.5913793,52.2137931 L11.8982759,51.9827586 L11.4362069,52.4448276 L6.58448276,57.2965517 L6.23793103,57.7586207 L6.35344828,58.3362069 L7.97068966,64.6896552 L8.0862069,65.3827586 L8.77931034,65.4982759 L15.1327586,67.1155172 L15.8258621,67.3465517 L15.8258621,67.3465517 Z M25.2982759,40.7775862 L17.3275862,48.7482759 C16.1724138,48.4017241 14.9017241,48.1706897 13.6310345,48.1706897 C10.7431034,48.1706897 7.73965517,49.3258621 5.54482759,51.5206897 C1.03965517,56.0258621 1.03965517,63.187931 5.54482759,67.6931034 C7.73965517,69.887931 10.7431034,71.0431034 13.6310345,71.0431034 C16.5189655,71.0431034 19.5224138,69.887931 21.7172414,67.6931034 C24.8362069,64.4586207 25.7603448,59.9534483 24.4896552,55.9103448 L32.1137931,48.1706897 L25.2982759,40.7775862 L25.2982759,40.7775862 Z M15.4793103,66.0758621 L9.12586207,64.4586207 L7.50862069,58.1051724 L12.3603448,53.2534483 L18.7137931,54.8706897 L20.3310345,61.2241379 L15.4793103,66.0758621 L15.4793103,66.0758621 Z" id="Shape"></path>
                        </g>
                    </g>
                </g>
            </g>
        </g>
    </g>
</svg>