<?xml version="1.0" encoding="UTF-8" standalone="no"?>
<svg width="100px" height="99px" viewBox="0 0 100 99" version="1.1" xmlns="http://www.w3.org/2000/svg" xmlns:xlink="http://www.w3.org/1999/xlink" xmlns:sketch="http://www.bohemiancoding.com/sketch/ns">
    <!-- Generator: Sketch 3.4.3 (16618) - http://www.bohemiancoding.com/sketch -->
    <title>Group@2x</title>
    <desc>Created with Sketch.</desc>
    <defs></defs>
    <g id="Welcome" stroke="none" stroke-width="1" fill="none" fill-rule="evenodd" sketch:type="MSPage">
        <g id="V1_2-Copy" sketch:type="MSArtboardGroup" transform="translate(-900.000000, -2104.000000)" fill="#303B4B">
            <g id="Business-size" sketch:type="MSLayerGroup" transform="translate(0.000000, 1990.000000)">
                <g id="Industry" transform="translate(721.000000, 114.000000)" sketch:type="MSShapeGroup">
                    <g id="industrial20" transform="translate(179.000000, 0.000000)">
                        <g id="Group">
                            <g transform="translate(0.000000, 17.085427)" id="Shape">
                                <path d="M70.7643216,34.7075377 L70.7643216,24.0281407 L39.5582915,35.598995 L39.5582915,24.0281407 L19.0221106,31.6427136 L19.0221106,0.0266331658 L6.91306533,0.0266331658 L6.91306533,36.1371859 L0,38.7035176 L0,81.2738693 L99.5567839,81.2738693 L99.5567839,24.0301508 L70.7643216,34.7075377 L70.7643216,34.7075377 Z M9.74924623,38.1100503 L9.74924623,2.86834171 L16.1839196,2.86834171 L16.1839196,35.7271357 L36.7201005,28.1090452 L36.7201005,39.6819095 L67.9226131,28.1090452 L67.9226131,38.7899497 L96.720603,28.1090452 L96.720603,68.3934673 L2.8361809,68.3934673 L2.8361809,40.6763819 L9.74924623,38.1100503 L9.74924623,38.1100503 Z M2.8361809,78.4396985 L2.8361809,71.2386935 L96.720603,71.2386935 L96.720603,78.4396985 L2.8361809,78.4396985 L2.8361809,78.4396985 Z"></path>
                                <path d="M31.7603015,39.2356784 L17.7271357,39.2356784 L17.7271357,55.3964824 L31.7603015,55.3964824 L31.7603015,39.2356784 L31.7603015,39.2356784 Z M20.5648241,52.561809 L20.5648241,42.0753769 L28.9236181,42.0753769 L28.9236181,52.561809 L20.5648241,52.561809 L20.5648241,52.561809 Z"></path>
                                <path d="M62.3924623,39.2356784 L48.3613065,39.2356784 L48.3613065,55.3964824 L62.3924623,55.3964824 L62.3924623,39.2356784 L62.3924623,39.2356784 Z M51.1974874,52.561809 L51.1974874,42.0753769 L59.5527638,42.0753769 L59.5527638,52.561809 L51.1974874,52.561809 L51.1974874,52.561809 Z"></path>
                                <path d="M91.640201,39.2356784 L77.6035176,39.2356784 L77.6035176,55.3964824 L91.640201,55.3964824 L91.640201,39.2356784 L91.640201,39.2356784 Z M80.4452261,52.561809 L80.4452261,42.0753769 L88.8005025,42.0753769 L88.8005025,52.561809 L80.4452261,52.561809 L80.4452261,52.561809 Z"></path>
                            </g>
                            <g transform="translate(10.050251, 0.000000)" id="Shape">
                                <path d="M2.62512563,12.8175879 C3.10552764,7.54824121 5.87487437,7.12211055 9.17135678,7.12211055 C9.72361809,7.12211055 10.2954774,7.14020101 10.8889447,7.15075377 C11.4768844,7.17035176 12.081407,7.18844221 12.6889447,7.18844221 C16.4331658,7.18844221 20.1864322,6.54623116 22.2547739,1.89045226 L22.3733668,1.61909548 L20.7819095,0.916080402 L20.6633166,1.18341709 C19.0859296,4.72964824 16.4603015,5.44371859 12.7306533,5.44371859 C12.1442211,5.44371859 11.5472362,5.42562814 10.9306533,5.40954774 C10.3623116,5.39899497 9.79045226,5.38090452 9.22211055,5.38090452 C5.51356784,5.38090452 1.50351759,5.94371859 0.893467337,12.6592965 L0.864824121,12.9487437 L2.60050251,13.1050251 L2.62512563,12.8175879 L2.62512563,12.8175879 Z"></path>
                                <path d="M3.09447236,13.7005025 L0.267336683,13.4452261 L0.348241206,12.6055276 C1.04773869,4.85276382 6.11407035,4.73366834 10.9462312,4.86331658 C11.5542714,4.87788945 12.1492462,4.89547739 12.7286432,4.89547739 C16.3291457,4.89547739 18.6959799,4.25326633 20.1613065,0.960301508 L20.5065327,0.192462312 L23.0924623,1.34321608 L22.7542714,2.10552764 C20.1934673,7.87286432 15.1020101,7.8120603 10.8703518,7.69698492 C10.2482412,7.68241206 9.6959799,7.66633166 9.17085427,7.66633166 C5.93567839,7.66633166 3.61005025,8.04020101 3.1678392,12.8638191 L3.09447236,13.7005025 L3.09447236,13.7005025 Z M1.46482412,12.4522613 L2.10502513,12.5115578 C2.70050251,7.04070352 5.91959799,6.57688442 9.17085427,6.57688442 C9.70854271,6.57688442 10.2623116,6.59145729 10.8396985,6.60552764 C15.8211055,6.73668342 19.5241206,6.41507538 21.6497487,1.89899497 L21.0552764,1.63869347 C19.3487437,5.24472362 16.4889447,5.99246231 12.7286432,5.99246231 C12.1407035,5.99246231 11.5361809,5.97437186 10.9175879,5.95829146 C6.78643216,5.84874372 2.20603015,5.48894472 1.46482412,12.4522613 L1.46482412,12.4522613 Z"></path>
                            </g>
                        </g>
                    </g>
                </g>
            </g>
        </g>
    </g>
</svg>