<?xml version="1.0" encoding="UTF-8" standalone="no"?>
<svg width="50px" height="49px" viewBox="0 0 50 49" version="1.1" xmlns="http://www.w3.org/2000/svg" xmlns:xlink="http://www.w3.org/1999/xlink" xmlns:sketch="http://www.bohemiancoding.com/sketch/ns">
    <!-- Generator: Sketch 3.4.3 (16618) - http://www.bohemiancoding.com/sketch -->
    <title>Shape@2x</title>
    <desc>Created with Sketch.</desc>
    <defs></defs>
    <g id="Welcome" stroke="none" stroke-width="1" fill="none" fill-rule="evenodd" sketch:type="MSPage">
        <g id="V1_2-Copy" sketch:type="MSArtboardGroup" transform="translate(-636.000000, -1725.000000)" fill="#FFFFFF">
            <g id="Industries" sketch:type="MSLayerGroup" transform="translate(252.000000, 1595.000000)">
                <g id="manufacturing" transform="translate(380.000000, 130.000000)" sketch:type="MSShapeGroup">
                    <g id="repair25" transform="translate(4.000000, 0.120482)">
                        <path d="M19.7729651,48.4577893 C19.0575581,48.4577893 18.3851744,48.1994326 17.8790698,47.7301835 L15.175,45.2215887 C15.1741279,45.2210493 15.1735465,45.2205099 15.1729651,45.2199706 L14.4270349,44.5276933 C13.3828488,43.5589906 13.3828488,41.9826912 14.4270349,41.0142582 L26.3590116,29.944834 L25.8165698,29.4413351 C25.5325581,29.1781241 25.5325581,28.7512153 25.8165698,28.4880043 C26.1005814,28.2245237 26.5604651,28.2245237 26.844186,28.4880043 L28.5877907,30.1052956 L30.4863372,28.3439934 C30.7703488,28.0805127 31.2302326,28.0805127 31.5139535,28.3439934 L32.0735465,28.8628642 L46.1046512,15.8457866 C46.1979651,15.7589486 46.3107558,15.700697 46.4299419,15.6713015 L48.4831395,14.8366314 C48.8869186,14.6726639 49.3491279,14.7532992 49.6613372,15.0426695 C49.9732558,15.3320398 50.0601744,15.7611061 49.8834302,16.135966 L48.9834302,18.0418184 C48.9514535,18.1521189 48.8886628,18.255947 48.7956395,18.3425154 L34.7645349,31.3593233 L35.3241279,31.8784639 C35.4604651,32.0049454 35.5369186,32.1761943 35.5369186,32.3552641 C35.5369186,32.5343338 35.4601744,32.7055828 35.3241279,32.8320643 L33.4255814,34.5936362 L35.1688953,36.2111971 C35.452907,36.4744081 35.452907,36.9013169 35.1688953,37.1645279 C34.8848837,37.4280085 34.425,37.4280085 34.1412791,37.1645279 L33.5985465,36.661029 L21.6665698,47.7304532 C21.1607558,48.1991629 20.4883721,48.4577893 19.7729651,48.4577893 L19.7729651,48.4577893 Z M18.6726744,46.5592183 L18.9069767,46.7765831 C19.1383721,46.9909814 19.4459302,47.1093724 19.7729651,47.1093724 C20.1,47.1093724 20.4075581,46.9912511 20.6389535,46.7765831 L32.5709302,35.7071589 L28.0738372,31.5354266 C28.0709302,31.5327298 28.0680233,31.5300329 28.065407,31.5273361 L27.3869186,30.8981648 L15.4549419,41.9673193 C14.9773256,42.4104091 14.9773256,43.1310031 15.4549419,43.5740929 L15.6892442,43.791188 L26.2944767,33.9525988 C27.1171512,33.1896645 28.4555233,33.1893948 29.2781977,33.9525988 L29.2781977,33.9525988 C29.6767442,34.3223347 29.8962209,34.8136978 29.8962209,35.3366139 C29.8962209,35.85953 29.6767442,36.3511628 29.2781977,36.720629 L18.6726744,46.5592183 L18.6726744,46.5592183 Z M16.7165698,44.7447885 L17.6447674,45.6058875 L28.25,35.7675679 C28.505814,35.5302466 28.505814,35.1437903 28.25,34.9064689 C27.9938953,34.6691475 27.5776163,34.6691475 27.3218023,34.9064689 L16.7165698,44.7447885 L16.7165698,44.7447885 Z M29.615407,31.0583567 L32.3973837,33.6394964 L33.7825581,32.3547247 L31.5598837,30.2927256 C31.5584302,30.2913771 31.556686,30.289759 31.5552326,30.2884106 L31.0002907,29.773585 L29.615407,31.0583567 L29.615407,31.0583567 Z M33.3406977,30.0378748 L33.7369186,30.4054532 L47.655814,17.4930127 L48.1511628,16.4439444 L47.0197674,16.9037546 L33.1011628,29.816195 L33.3406977,30.0378748 L33.3406977,30.0378748 Z M8.19825581,37.0555758 C7.88372093,37.0555758 7.56686047,37.0178201 7.25639535,36.9406907 L6.06889535,36.645657 C5.81802326,36.5833602 5.62209302,36.4015936 5.55465116,36.1688568 C5.4877907,35.9361201 5.55930233,35.6880113 5.74273256,35.5175714 L8.67180233,32.8002417 C9.00930233,32.4868696 9.19534884,32.0680513 9.19534884,31.6206465 C9.19534884,31.1732418 9.00930233,30.7544235 8.67180233,30.4410514 L7.35436047,29.219116 C7.01686047,28.9057439 6.56511628,28.7331465 6.08313953,28.7331465 C5.60087209,28.7331465 5.1494186,28.9057439 4.81162791,29.2188463 L1.88284884,31.9364458 C1.6994186,32.1068857 1.43168605,32.1734975 1.18081395,32.1109309 C0.930232558,32.0486341 0.734302326,31.8668675 0.666860465,31.6341307 L0.348546512,30.5324741 C0.011627907,29.3652844 0.374418605,28.1093689 1.29534884,27.2550119 L3.79040698,24.9403194 C4.71162791,24.0859625 6.06511628,23.7493976 7.32325581,24.0622303 L9.06918605,24.4961509 L26.3392442,8.47453068 L25.8715116,6.85481227 C25.5343023,5.68762258 25.897093,4.43170706 26.818314,3.5773501 L29.3130814,1.26265761 C30.2343023,0.408300644 31.5875,0.0717357803 32.8459302,0.384298823 L34.0337209,0.679602129 C34.2843023,0.741898991 34.4802326,0.923665593 34.5476744,1.15640235 C34.6145349,1.38913911 34.5430233,1.63724783 34.359593,1.80768773 L31.4302326,4.52501751 C31.0927326,4.8383896 30.906686,5.2572079 30.906686,5.70461264 C30.906686,6.15201737 31.0927326,6.57083567 31.4302326,6.88393808 L32.7473837,8.10614318 C33.0851744,8.41924559 33.5366279,8.59184295 34.0188953,8.59184295 C34.5011628,8.59184295 34.9526163,8.41924559 35.290407,8.10614318 L38.2194767,5.38881339 C38.402907,5.21837349 38.6712209,5.1517617 38.9215116,5.21432824 C39.172093,5.27662511 39.3680233,5.45839171 39.4354651,5.69112847 L39.7534884,6.79278509 C40.0906977,7.9597051 39.727907,9.21562062 38.806686,10.0702473 L36.3119186,12.3849398 C35.3909884,13.2392967 34.0375,13.5755919 32.7790698,13.2632985 L31.0331395,12.829378 L13.7630814,28.8507285 L14.230814,30.4707166 C14.5680233,31.6376366 14.2052326,32.8935521 13.2840116,33.7481788 L10.7892442,36.0628713 C10.0959302,36.7057964 9.15697674,37.0555758 8.19825581,37.0555758 L8.19825581,37.0555758 Z M7.66104651,35.6451317 C8.4127907,35.8215046 9.21395349,35.6170846 9.7619186,35.1090011 L12.256686,32.7943086 C12.8116279,32.2792134 13.0302326,31.5224818 12.8270349,30.8194172 L12.2508721,28.8234905 C12.1840116,28.5907537 12.2555233,28.342645 12.4389535,28.1722051 L30.3023256,11.6001611 C30.4857558,11.4299909 30.7537791,11.3636488 31.0043605,11.425676 L33.1555233,11.9604581 C33.9125,12.1492365 34.7293605,11.9461649 35.2843023,11.4313393 L37.7790698,9.11664682 C38.3273256,8.60802396 38.5473837,7.86369781 38.3569767,7.16791468 L36.3180233,9.05920426 C35.7061047,9.62715747 34.8892442,9.93999019 34.0188953,9.93999019 C33.1485465,9.93999019 32.331686,9.62715747 31.7197674,9.05920426 L30.4026163,7.83699916 C29.790407,7.26931563 29.4531977,6.51177501 29.4531977,5.70407327 C29.4531977,4.89637153 29.7901163,4.13883091 30.4026163,3.57114738 L32.4415698,1.6798578 C31.6909884,1.50321519 30.8886628,1.70736551 30.3406977,2.21571869 L27.8459302,4.53068086 C27.2909884,5.04577613 27.0723837,5.80250771 27.2755814,6.50584197 L27.8517442,8.5017687 C27.9186047,8.73450546 27.847093,8.98261418 27.6636628,9.15305408 L9.8002907,25.7250981 C9.61686047,25.895538 9.34883721,25.9618801 9.09825581,25.8995832 L6.94709302,25.3648011 C6.18953488,25.1760227 5.37325581,25.3790943 4.81831395,25.8939199 L2.32325581,28.2086124 C1.7752907,28.7169655 1.55523256,29.4612917 1.74563953,30.1573445 L3.78459302,28.2660549 C4.39651163,27.6981017 5.21337209,27.385269 6.08372093,27.385269 C6.95406977,27.385269 7.77063953,27.6981017 8.38255814,28.2660549 L9.7,29.4879903 C10.3122093,30.0559435 10.6494186,30.8134842 10.6494186,31.6211859 C10.6494186,32.428618 10.3125,33.1861586 9.7,33.7541118 L7.66104651,35.6451317 L7.66104651,35.6451317 Z" id="Shape"></path>
                    </g>
                </g>
            </g>
        </g>
    </g>
</svg>