<?xml version="1.0" encoding="UTF-8" standalone="no"?>
<svg width="48px" height="48px" viewBox="0 0 48 48" version="1.1" xmlns="http://www.w3.org/2000/svg" xmlns:xlink="http://www.w3.org/1999/xlink" xmlns:sketch="http://www.bohemiancoding.com/sketch/ns">
    <!-- Generator: Sketch 3.4.3 (16618) - http://www.bohemiancoding.com/sketch -->
    <title>More@2x</title>
    <desc>Created with Sketch.</desc>
    <defs></defs>
    <g id="Welcome" stroke="none" stroke-width="1" fill="none" fill-rule="evenodd" sketch:type="MSPage">
        <g id="V1_2-Copy" sketch:type="MSArtboardGroup" transform="translate(-1010.000000, -1725.000000)">
            <g id="Industries" sketch:type="MSLayerGroup" transform="translate(252.000000, 1595.000000)">
                <g id="Others" transform="translate(759.000000, 131.000000)" sketch:type="MSShapeGroup">
                    <g id="More">
                        <path d="M13.75,20 C11.6819739,20 10,21.550851 10,23.4577281 C10,25.3646052 11.6820555,26.9153806 13.75,26.9153806 C15.8179445,26.9153806 17.5,25.3646052 17.5,23.4577281 C17.5,21.550851 15.8180261,20 13.75,20 L13.75,20 Z M13.75,24.9863323 C12.8367047,24.9863323 12.0929038,24.3011429 12.0929038,23.4587118 C12.0929038,22.6162808 12.8367047,21.9310914 13.75,21.9310914 C14.6632953,21.9310914 15.4070962,22.6162808 15.4070962,23.4587118 C15.4070962,24.3011429 14.6643556,24.9863323 13.75,24.9863323 L13.75,24.9863323 Z M23.1672104,20 C21.0991843,20 19.4172104,21.550851 19.4172104,23.4577281 C19.4172104,25.3646052 21.0992659,26.9153806 23.1672104,26.9153806 C25.235155,26.9153806 26.917292,25.3646052 26.917292,23.4577281 C26.917292,21.550851 25.235155,20 23.1672104,20 L23.1672104,20 Z M23.1672104,24.9863323 C22.2539152,24.9863323 21.5101142,24.3011429 21.5101142,23.4587118 C21.5101142,22.6162808 22.2539152,21.9310914 23.1672104,21.9310914 C24.0805057,21.9310914 24.8242251,22.6162808 24.8242251,23.4587118 C24.8242251,24.3011429 24.0815661,24.9863323 23.1672104,24.9863323 L23.1672104,24.9863323 Z M32.5843393,20 C30.5174551,20 28.8353997,21.550851 28.8353997,23.4577281 C28.8353997,25.3646052 30.5174551,26.9153806 32.5843393,26.9153806 C34.6523654,26.9153806 36.3344209,25.3646052 36.3344209,23.4577281 C36.3344209,21.550851 34.6522838,20 32.5843393,20 L32.5843393,20 Z M32.5843393,24.9863323 C31.671044,24.9863323 30.9283034,24.3011429 30.9283034,23.4587118 C30.9283034,22.6162808 31.6709625,21.9310914 32.5843393,21.9310914 C33.4977162,21.9310914 34.2414356,22.6162808 34.2414356,23.4587118 C34.2414356,24.3011429 33.4977162,24.9863323 32.5843393,24.9863323 L32.5843393,24.9863323 Z" fill="#FFFFFF"></path>
                        <circle id="Oval-13" stroke="#FFFFFF" stroke-width="2" cx="23" cy="23" r="23"></circle>
                    </g>
                </g>
            </g>
        </g>
    </g>
</svg>