<?xml version="1.0" encoding="UTF-8" standalone="no"?>
<svg width="102px" height="101px" viewBox="0 0 102 101" version="1.1" xmlns="http://www.w3.org/2000/svg" xmlns:xlink="http://www.w3.org/1999/xlink" xmlns:sketch="http://www.bohemiancoding.com/sketch/ns">
    <!-- Generator: Sketch 3.4.3 (16618) - http://www.bohemiancoding.com/sketch -->
    <title>Shape@2x</title>
    <desc>Created with Sketch.</desc>
    <defs></defs>
    <g id="Welcome" stroke="none" stroke-width="1" fill="none" fill-rule="evenodd" sketch:type="MSPage">
        <g id="V1_2-Copy" sketch:type="MSArtboardGroup" transform="translate(-431.000000, -2103.000000)" stroke="#303B4B" stroke-width="2">
            <g id="Business-size" sketch:type="MSLayerGroup" transform="translate(0.000000, 1990.000000)">
                <g id="Small-business" transform="translate(252.000000, 114.000000)" sketch:type="MSShapeGroup">
                    <g id="shop4" transform="translate(180.000000, 0.000000)">
                        <path d="M87.5,15.46875 L12.5,15.46875 L0,27.84375 L0,30.9375 L0,43.3125 C0,50.1465938 5.603125,55.6875 12.5,55.6875 L12.5,86.625 C5.60292969,86.625 0,92.1659063 0,99 L100,99 C100,92.1659063 94.4091797,86.625 87.5,86.625 L87.5,55.6875 C94.4091797,55.6875 100,50.1465938 100,43.3125 L100,30.9375 L100,27.84375 L87.5,15.46875 L87.5,15.46875 Z M75,43.3125 C75,46.7264531 72.1923828,49.5 68.75,49.5 C65.3076172,49.5 62.5,46.7264531 62.5,43.3125 L62.5,30.9375 L75,30.9375 L75,43.3125 L75,43.3125 Z M37.5,43.3125 C37.5,46.7264531 34.6984375,49.5 31.25,49.5 C27.8076172,49.5 25,46.7264531 25,43.3125 L25,30.9375 L37.5,30.9375 L37.5,43.3125 L37.5,43.3125 Z M43.75,30.9375 L56.25,30.9375 L56.25,43.3125 C56.25,46.7264531 53.4484375,49.5 50,49.5 C46.5576172,49.5 43.75,46.7264531 43.75,43.3125 L43.75,30.9375 L43.75,30.9375 Z M6.25,43.3125 L6.25,30.9375 L18.75,30.9375 L18.75,43.3125 C18.75,46.7264531 15.9484375,49.5 12.5,49.5 C9.05761719,49.5 6.25,46.7264531 6.25,43.3125 L6.25,43.3125 Z M18.75,86.625 L18.75,53.9714355 C19.9341797,53.2886836 20.9839844,52.4365488 21.875,51.4214121 C24.1699219,54.0135879 27.5025391,55.6875 31.25,55.6875 C35.0097656,55.6875 38.3361328,54.0137813 40.625,51.4216055 C42.9199219,54.0135879 46.2525391,55.6875 50,55.6875 C52.2949219,55.6875 54.4066406,55.0349121 56.25,53.9714355 L56.25,86.625 L18.75,86.625 L18.75,86.625 Z M81.25,86.625 L62.5,86.625 L62.5,53.9714355 C64.3433594,55.0349121 66.4671875,55.6875 68.75,55.6875 C72.5097656,55.6875 75.8421875,54.0137812 78.125,51.4216055 C79.0283203,52.4367422 80.0660156,53.2884902 81.25,53.9716289 L81.25,86.625 L81.25,86.625 Z M93.75,43.3125 C93.75,46.7264531 90.9423828,49.5 87.5,49.5 C84.0576172,49.5 81.25,46.7264531 81.25,43.3125 L81.25,30.9375 L93.75,30.9375 L93.75,43.3125 L93.75,43.3125 Z M87.5,12.375 L12.5,12.375 L12.5,0 L87.5,0 L87.5,12.375 L87.5,12.375 Z M71.875,68.0625 C71.875,69.7725703 70.4833984,71.15625 68.75,71.15625 C67.0289062,71.15625 65.625,69.7725703 65.625,68.0625 C65.625,66.3524297 67.0289062,64.96875 68.75,64.96875 C70.4833984,64.96875 71.875,66.3524297 71.875,68.0625 L71.875,68.0625 Z" id="Shape"></path>
                    </g>
                </g>
            </g>
        </g>
    </g>
</svg>