<?xml version="1.0" encoding="UTF-8" standalone="no"?>
<svg width="159px" height="23px" viewBox="0 0 159 23" version="1.1" xmlns="http://www.w3.org/2000/svg" xmlns:xlink="http://www.w3.org/1999/xlink" xmlns:sketch="http://www.bohemiancoding.com/sketch/ns">
    <!-- Generator: Sketch 3.4.3 (16618) - http://www.bohemiancoding.com/sketch -->
    <title>logo@2x</title>
    <desc>Created with Sketch.</desc>
    <defs></defs>
    <g id="Welcome" stroke="none" stroke-width="1" fill="none" fill-rule="evenodd" sketch:type="MSPage">
        <g id="V1_2-Copy" sketch:type="MSArtboardGroup" transform="translate(-252.000000, -64.000000)" fill="#FFFFFF">
            <g id="Header" sketch:type="MSLayerGroup" transform="translate(-5.000000, 0.000000)">
                <g id="Menu" transform="translate(257.000000, 64.000000)" sketch:type="MSShapeGroup">
                    <g id="logo">
                        <ellipse id="Oval" cx="2.6164557" cy="4.85820896" rx="0.760337553" ry="0.76119403"></ellipse>
                        <ellipse id="Oval" cx="22.0945148" cy="12.9179104" rx="2.92953586" ry="2.93283582"></ellipse>
                        <ellipse id="Oval" cx="15.3409283" cy="19.3880597" rx="2.23628692" ry="2.23880597"></ellipse>
                        <ellipse id="Oval" cx="7.55864979" cy="20.8208955" rx="1.56540084" ry="1.56716418"></ellipse>
                        <ellipse id="Oval" cx="2.30337553" cy="16.3656716" rx="1.36413502" ry="1.36567164"></ellipse>
                        <ellipse id="Oval" cx="1.20759494" cy="10.4104478" rx="1.14050633" ry="1.14179104"></ellipse>
                        <ellipse id="Oval" cx="24.7556962" cy="3.69402985" rx="3.68987342" ry="3.69402985"></ellipse>
                        <g id="Group" transform="translate(44.949367, 7.388060)">
                            <path d="M4.02531646,8.8880597 C4.4278481,8.8880597 4.78565401,8.84328358 5.12109705,8.6641791 C5.45654008,8.52985075 5.72489451,8.32835821 5.94852321,8.08208955 C6.1721519,7.8358209 6.32869198,7.54477612 6.4628692,7.20895522 C6.59704641,6.87313433 6.61940928,6.49253731 6.61940928,6.08955224 L6.61940928,0.134328358 L7.93881857,0.134328358 L7.93881857,6.08955224 C7.93881857,6.67164179 7.84936709,7.18656716 7.67046414,7.67910448 C7.46919831,8.17164179 7.22320675,8.57462687 6.91012658,8.93283582 C6.57468354,9.29104478 6.1721519,9.55970149 5.68016878,9.76119403 C5.18818565,9.96268657 4.65147679,10.0522388 4.04767932,10.0522388 C3.44388186,10.0522388 2.907173,9.94029851 2.43755274,9.76119403 C1.94556962,9.55970149 1.54303797,9.29104478 1.20759494,8.93283582 C0.872151899,8.57462687 0.603797468,8.17164179 0.447257384,7.67910448 C0.2907173,7.18656716 0.178902954,6.67164179 0.178902954,6.08955224 L0.178902954,0.134328358 L1.49831224,0.134328358 L1.49831224,6.08955224 C1.49831224,6.49253731 1.54303797,6.87313433 1.65485232,7.20895522 C1.76666667,7.54477612 1.92320675,7.8358209 2.16919831,8.08208955 C2.392827,8.32835821 2.66118143,8.52985075 2.99662447,8.6641791 C3.2649789,8.79850746 3.62278481,8.8880597 4.02531646,8.8880597 L4.02531646,8.8880597 Z" id="Shape"></path>
                            <path d="M11.114346,0.201492537 C11.1590717,0.223880597 11.2261603,0.291044776 11.3156118,0.402985075 L16.9957806,7.79104478 C16.9957806,7.67910448 16.9734177,7.54477612 16.9734177,7.43283582 L16.9734177,7.09701493 L16.9734177,0.156716418 L18.1139241,0.156716418 L18.1139241,9.94029851 L17.4654008,9.94029851 C17.3535865,9.94029851 17.264135,9.91791045 17.1970464,9.89552239 C17.1075949,9.87313433 17.0628692,9.78358209 16.9734177,9.69402985 L11.3156118,2.30597015 C11.3156118,2.41791045 11.3379747,2.52985075 11.3379747,2.64179104 L11.3379747,2.93283582 L11.3379747,9.89552239 L10.1974684,9.89552239 L10.1974684,0.134328358 L10.8907173,0.134328358 C10.9801688,0.134328358 11.0696203,0.179104478 11.114346,0.201492537 L11.114346,0.201492537 Z" id="Shape"></path>
                            <path d="M22.0721519,9.96268657 L20.7303797,9.96268657 L20.7303797,0.134328358 L22.0721519,0.134328358 L22.0721519,9.96268657 L22.0721519,9.96268657 Z" id="Shape"></path>
                            <path d="M31.3527426,0.134328358 L31.3527426,1.25373134 L28.1772152,1.25373134 L28.1772152,9.94029851 L26.8578059,9.94029851 L26.8578059,1.25373134 L23.7046414,1.25373134 L23.7046414,0.134328358 L31.3527426,0.134328358 L31.3527426,0.134328358 Z" id="Shape"></path>
                            <path d="M38.7772152,0.134328358 L38.7772152,1.23134328 L34.0810127,1.23134328 L34.0810127,4.47761194 L37.8827004,4.47761194 L37.8827004,5.50746269 L34.0810127,5.50746269 L34.0810127,8.84328358 L38.7772152,8.84328358 L38.7772152,9.94029851 L32.7392405,9.94029851 L32.7392405,0.134328358 L38.7772152,0.134328358 L38.7772152,0.134328358 Z" id="Shape"></path>
                            <path d="M49.1535865,5.05970149 C49.1535865,5.79850746 49.0417722,6.44776119 48.7957806,7.05223881 C48.549789,7.65671642 48.2590717,8.17164179 47.8118143,8.61940299 C47.4092827,9.06716418 46.8725738,9.38059701 46.2911392,9.60447761 C45.6873418,9.85074627 45.0388186,9.96268657 44.3232068,9.96268657 L40.6556962,9.96268657 L40.6556962,0.134328358 L44.3232068,0.134328358 C45.0388186,0.134328358 45.6873418,0.246268657 46.2911392,0.492537313 C46.8949367,0.73880597 47.3869198,1.07462687 47.8118143,1.47761194 C48.2590717,1.92537313 48.5721519,2.44029851 48.7957806,3.04477612 C49.0417722,3.64925373 49.1535865,4.32089552 49.1535865,5.05970149 L49.1535865,5.05970149 Z M47.7894515,5.05970149 C47.7894515,4.45522388 47.7,3.91791045 47.5434599,3.44776119 C47.3869198,2.97761194 47.1632911,2.57462687 46.850211,2.23880597 C46.5371308,1.90298507 46.2016878,1.65671642 45.7544304,1.47761194 C45.307173,1.32089552 44.8599156,1.23134328 44.3455696,1.23134328 L42.0198312,1.23134328 L42.0198312,8.8880597 L44.3455696,8.8880597 C44.8599156,8.8880597 45.3518987,8.79850746 45.7544304,8.61940299 C46.2016878,8.46268657 46.5371308,8.21641791 46.850211,7.88059701 C47.1632911,7.54477612 47.364557,7.14179104 47.5434599,6.67164179 C47.7,6.20149254 47.7894515,5.6641791 47.7894515,5.05970149 L47.7894515,5.05970149 Z" id="Shape"></path>
                            <path d="M60.4915612,7.92537313 C60.5810127,7.92537313 60.6257384,7.94776119 60.692827,8.01492537 L61.207173,8.59701493 C60.8046414,9.06716418 60.3350211,9.42537313 59.7535865,9.69402985 C59.1721519,9.96268657 58.5012658,10.0746269 57.6738397,10.0746269 C56.9582278,10.0746269 56.3320675,9.96268657 55.7729958,9.71641791 C55.2139241,9.47014925 54.6995781,9.13432836 54.2970464,8.68656716 C53.8945148,8.21641791 53.5814346,7.7238806 53.3578059,7.09701493 C53.1341772,6.47014925 53.0223629,5.82089552 53.0223629,5.08208955 C53.0223629,4.34328358 53.1341772,3.67164179 53.3801688,3.06716418 C53.6261603,2.46268657 53.9616034,1.92537313 54.3864979,1.47761194 C54.8337553,1.02985075 55.3481013,0.694029851 55.9518987,0.447761194 C56.5556962,0.201492537 57.2042194,0.0895522388 57.9421941,0.0895522388 C58.6578059,0.0895522388 59.2839662,0.201492537 59.7983122,0.425373134 C60.3126582,0.649253731 60.7822785,0.940298507 61.1848101,1.32089552 L60.7375527,1.92537313 C60.7151899,1.97014925 60.692827,2.01492537 60.6257384,2.03731343 C60.6033755,2.05970149 60.5139241,2.08208955 60.4691983,2.08208955 C60.4244726,2.08208955 60.357384,2.05970149 60.2679325,2.03731343 C60.178481,2.01492537 60.1337553,1.92537313 60.0219409,1.88059701 C59.9324895,1.8358209 59.8206751,1.74626866 59.6864979,1.65671642 C59.5746835,1.56716418 59.4181435,1.52238806 59.2392405,1.43283582 C59.0827004,1.3880597 58.8814346,1.32089552 58.635443,1.2761194 C58.4118143,1.23134328 58.1434599,1.23134328 57.8751055,1.23134328 C57.3607595,1.23134328 56.8687764,1.32089552 56.421519,1.5 C55.9742616,1.70149254 55.5940928,1.94776119 55.3033755,2.26119403 C55.0126582,2.57462687 54.7666667,3 54.5654008,3.49253731 C54.4088608,3.98507463 54.2970464,4.5 54.2970464,5.10447761 C54.2970464,5.70895522 54.3864979,6.24626866 54.5654008,6.73880597 C54.7219409,7.23134328 54.9679325,7.6119403 55.2810127,7.94776119 C55.5940928,8.28358209 55.9295359,8.52985075 56.3544304,8.70895522 C56.756962,8.86567164 57.2042194,8.95522388 57.6962025,8.95522388 C57.9869198,8.95522388 58.2329114,8.93283582 58.478903,8.91044776 C58.7248945,8.8880597 58.9261603,8.82089552 59.1274262,8.75373134 C59.328692,8.6641791 59.5075949,8.59701493 59.664135,8.48507463 C59.8206751,8.37313433 60.0219409,8.23880597 60.178481,8.08208955 C60.357384,7.97014925 60.4021097,7.92537313 60.4915612,7.92537313 L60.4915612,7.92537313 Z" id="Shape"></path>
                            <path d="M72.0308017,5.05970149 C72.0308017,5.79850746 71.9189873,6.44776119 71.6729958,7.07462687 C71.4270042,7.67910448 71.0915612,8.21641791 70.6890295,8.6641791 C70.2864979,9.1119403 69.749789,9.44776119 69.1683544,9.69402985 C68.564557,9.94029851 67.9160338,10.0522388 67.2004219,10.0522388 C66.4848101,10.0522388 65.8362869,9.94029851 65.2324895,9.69402985 C64.628692,9.44776119 64.1367089,9.1119403 63.7118143,8.6641791 C63.3092827,8.21641791 62.9514768,7.70149254 62.7278481,7.07462687 C62.4818565,6.47014925 62.3700422,5.79850746 62.3700422,5.05970149 C62.3700422,4.32089552 62.4818565,3.67164179 62.7278481,3.04477612 C62.9514768,2.44029851 63.264557,1.90298507 63.7118143,1.45522388 C64.1590717,1.00746269 64.6510549,0.671641791 65.2324895,0.425373134 C65.8139241,0.179104478 66.4848101,0.0447761194 67.2004219,0.0447761194 C67.9160338,0.0447761194 68.564557,0.179104478 69.1683544,0.425373134 C69.7721519,0.671641791 70.264135,1.02985075 70.6890295,1.45522388 C71.1362869,1.90298507 71.4493671,2.44029851 71.6729958,3.04477612 C71.9189873,3.64925373 72.0308017,4.32089552 72.0308017,5.05970149 L72.0308017,5.05970149 Z M70.6666667,5.05970149 C70.6666667,4.45522388 70.5772152,3.91791045 70.4206751,3.44776119 C70.264135,2.97761194 70.0181435,2.57462687 69.7274262,2.23880597 C69.4367089,1.90298507 69.078903,1.65671642 68.6316456,1.47761194 C68.1843882,1.29850746 67.7371308,1.20895522 67.2227848,1.20895522 C66.7084388,1.20895522 66.2164557,1.29850746 65.8139241,1.47761194 C65.3666667,1.63432836 65.0312236,1.92537313 64.7181435,2.23880597 C64.4050633,2.55223881 64.1814346,2.97761194 64.0025316,3.44776119 C63.8236287,3.91791045 63.7565401,4.45522388 63.7565401,5.05970149 C63.7565401,5.6641791 63.8459916,6.20149254 64.0025316,6.67164179 C64.1590717,7.14179104 64.4050633,7.54477612 64.7181435,7.88059701 C65.0312236,8.21641791 65.3666667,8.46268657 65.8139241,8.64179104 C66.2611814,8.79850746 66.7084388,8.91044776 67.2227848,8.91044776 C67.7371308,8.91044776 68.2291139,8.82089552 68.6316456,8.64179104 C69.078903,8.48507463 69.414346,8.19402985 69.7274262,7.88059701 C70.0181435,7.54477612 70.2417722,7.14179104 70.4206751,6.67164179 C70.5995781,6.17910448 70.6666667,5.6641791 70.6666667,5.05970149 L70.6666667,5.05970149 Z" id="Shape"></path>
                            <path d="M74.8037975,0.201492537 C74.8485232,0.223880597 74.9156118,0.291044776 75.0050633,0.402985075 L80.6852321,7.79104478 C80.6852321,7.67910448 80.6628692,7.54477612 80.6628692,7.43283582 L80.6628692,7.09701493 L80.6628692,0.156716418 L81.8033755,0.156716418 L81.8033755,9.94029851 L81.1548523,9.94029851 C81.043038,9.94029851 80.9535865,9.91791045 80.8864979,9.89552239 C80.7970464,9.87313433 80.7523207,9.78358209 80.6628692,9.69402985 L75.0050633,2.30597015 C75.0050633,2.41791045 75.0274262,2.52985075 75.0274262,2.64179104 L75.0274262,2.93283582 L75.0274262,9.89552239 L73.8869198,9.89552239 L73.8869198,0.134328358 L74.5801688,0.134328358 C74.6248945,0.134328358 74.7367089,0.179104478 74.8037975,0.201492537 L74.8037975,0.201492537 Z" id="Shape"></path>
                            <path d="M89.1831224,1.67910448 C89.1383966,1.7238806 89.0936709,1.79104478 89.0489451,1.8358209 C89.0042194,1.85820896 88.9371308,1.88059701 88.8924051,1.88059701 C88.8029536,1.88059701 88.735865,1.85820896 88.6240506,1.76865672 C88.5122363,1.67910448 88.3780591,1.6119403 88.2438819,1.52238806 C88.0873418,1.43283582 87.8860759,1.32089552 87.6624473,1.2761194 C87.4388186,1.18656716 87.1704641,1.1641791 86.8797468,1.1641791 C86.5890295,1.1641791 86.343038,1.18656716 86.0970464,1.2761194 C85.8734177,1.36567164 85.6945148,1.47761194 85.5156118,1.6119403 C85.3367089,1.74626866 85.2472574,1.90298507 85.1578059,2.10447761 C85.0683544,2.30597015 85.0459916,2.48507463 85.0459916,2.70895522 C85.0459916,2.97761194 85.0907173,3.20149254 85.2472574,3.40298507 C85.3814346,3.60447761 85.5379747,3.73880597 85.7839662,3.87313433 C86.0075949,4.00746269 86.2535865,4.11940299 86.5443038,4.20895522 C86.8350211,4.29850746 87.1257384,4.41044776 87.3940928,4.5 C87.6848101,4.6119403 87.9755274,4.7238806 88.2438819,4.8358209 C88.5122363,4.97014925 88.7582278,5.10447761 89.0042194,5.30597015 C89.2278481,5.50746269 89.4067511,5.75373134 89.5409283,6.02238806 C89.6751055,6.29104478 89.7421941,6.64925373 89.7421941,7.05223881 C89.7421941,7.5 89.6527426,7.88059701 89.5185654,8.26119403 C89.3843882,8.64179104 89.1607595,8.97761194 88.8924051,9.24626866 C88.6240506,9.51492537 88.2662447,9.73880597 87.8637131,9.89552239 C87.4611814,10.0522388 86.9915612,10.141791 86.4772152,10.141791 C85.8510549,10.141791 85.2696203,10.0298507 84.7552743,9.78358209 C84.2409283,9.55970149 83.7936709,9.24626866 83.4135021,8.84328358 L83.7936709,8.21641791 C83.8160338,8.17164179 83.8831224,8.12686567 83.9278481,8.08208955 C83.9725738,8.05970149 84.0396624,8.03731343 84.0843882,8.03731343 C84.1962025,8.03731343 84.3080169,8.08208955 84.4198312,8.19402985 C84.5540084,8.30597015 84.6881857,8.41791045 84.8894515,8.52985075 C85.0907173,8.6641791 85.2919831,8.7761194 85.5827004,8.86567164 C85.8510549,8.97761194 86.164135,9.02238806 86.5443038,9.02238806 C86.8350211,9.02238806 87.1481013,8.97761194 87.3940928,8.8880597 C87.6400844,8.79850746 87.8637131,8.6641791 88.0202532,8.52985075 C88.1767932,8.39552239 88.3109705,8.17164179 88.4004219,7.94776119 C88.4898734,7.7238806 88.5345992,7.47761194 88.5345992,7.20895522 C88.5345992,6.91791045 88.4898734,6.67164179 88.3333333,6.47014925 C88.1991561,6.26865672 88.042616,6.1119403 87.8189873,6 C87.5953586,5.86567164 87.3493671,5.75373134 87.0810127,5.6641791 C86.8126582,5.57462687 86.4995781,5.46268657 86.2312236,5.39552239 C85.9405063,5.30597015 85.649789,5.19402985 85.3814346,5.05970149 C85.1130802,4.94776119 84.8670886,4.79104478 84.6434599,4.56716418 C84.4198312,4.36567164 84.2632911,4.11940299 84.1291139,3.82835821 C83.9949367,3.53731343 83.9278481,3.17910448 83.9278481,2.73134328 C83.9278481,2.37313433 83.9725738,2.03731343 84.1291139,1.7238806 C84.2632911,1.3880597 84.464557,1.11940299 84.7105485,0.850746269 C84.9565401,0.604477612 85.2919831,0.402985075 85.6721519,0.246268657 C86.0523207,0.0895522388 86.4995781,0.0223880597 86.9468354,0.0223880597 C87.4835443,0.0223880597 87.9755274,0.111940299 88.4451477,0.291044776 C88.9147679,0.447761194 89.2949367,0.694029851 89.6303797,1.05223881 L89.1831224,1.67910448 L89.1831224,1.67910448 Z" id="Shape"></path>
                            <path d="M95.1987342,8.8880597 C95.6012658,8.8880597 95.9590717,8.84328358 96.2945148,8.6641791 C96.6299578,8.52985075 96.8983122,8.32835821 97.1219409,8.08208955 C97.3455696,7.8358209 97.5021097,7.54477612 97.6139241,7.20895522 C97.7257384,6.87313433 97.7704641,6.49253731 97.7704641,6.08955224 L97.7704641,0.134328358 L99.0898734,0.134328358 L99.0898734,6.08955224 C99.0898734,6.67164179 99.0004219,7.18656716 98.821519,7.67910448 C98.642616,8.17164179 98.3742616,8.57462687 98.0611814,8.93283582 C97.7257384,9.29104478 97.3232068,9.55970149 96.8312236,9.76119403 C96.3392405,9.96268657 95.8025316,10.0522388 95.221097,10.0522388 C94.6172996,10.0522388 94.0805907,9.94029851 93.5886076,9.76119403 C93.0966245,9.55970149 92.6940928,9.29104478 92.3586498,8.93283582 C92.0232068,8.57462687 91.7548523,8.17164179 91.5983122,7.67910448 C91.4417722,7.18656716 91.3299578,6.67164179 91.3299578,6.08955224 L91.3299578,0.134328358 L92.6493671,0.134328358 L92.6493671,6.08955224 C92.6493671,6.49253731 92.6940928,6.87313433 92.8059072,7.20895522 C92.9177215,7.54477612 93.0742616,7.8358209 93.2978903,8.08208955 C93.521519,8.32835821 93.7898734,8.52985075 94.1253165,8.6641791 C94.4383966,8.79850746 94.7738397,8.8880597 95.1987342,8.8880597 L95.1987342,8.8880597 Z" id="Shape"></path>
                            <path d="M102.712658,8.84328358 L106.939241,8.84328358 L106.939241,9.96268657 L101.370886,9.96268657 L101.370886,0.134328358 L102.712658,0.134328358 L102.712658,8.84328358 L102.712658,8.84328358 Z" id="Shape"></path>
                            <path d="M113.87173,0.134328358 L113.87173,1.25373134 L110.696203,1.25373134 L110.696203,9.94029851 L109.376793,9.94029851 L109.376793,1.25373134 L106.223629,1.25373134 L106.223629,0.134328358 L113.87173,0.134328358 L113.87173,0.134328358 Z" id="Shape"></path>
                        </g>
                    </g>
                </g>
            </g>
        </g>
    </g>
</svg>